<svg version="1.0" xmlns="http://www.w3.org/2000/svg"
    viewBox="0 0 945 540">

    <!-- background -->
    <rect x="0" y="0" width="945" height="540" fill="#607d8b" />

    <!-- logo background -->
    <circle cx="472.5" cy="270" r="180" fill="#b0bec5" />

    <!-- logo start -->

    <!-- left pins -->
    <rect x="342.5" y="197.5" rx="12.5" ry="12.5"
        width="60" height="25" fill="#263238" />
    <rect x="342.5" y="237.5" rx="12.5" ry="12.5"
        width="60" height="25" fill="#263238" />
    <rect x="342.5" y="277.5" rx="12.5" ry="12.5"
        width="60" height="25" fill="#263238" />
    <rect x="342.5" y="317.5" rx="12.5" ry="12.5"
        width="60" height="25" fill="#263238" />

    <!-- right pins -->
    <rect x="542.5" y="197.5" rx="12.5" ry="12.5"
        width="60" height="25" fill="#263238" />
    <rect x="542.5" y="237.5" rx="12.5" ry="12.5"
        width="60" height="25" fill="#263238" />
    <rect x="542.5" y="277.5" rx="12.5" ry="12.5"
        width="60" height="25" fill="#263238" />
    <rect x="542.5" y="317.5" rx="12.5" ry="12.5"
        width="60" height="25" fill="#263238" />

    <!-- top pins -->
    <rect x="400" y="340" rx="12.5" ry="12.5"
        width="25" height="60" fill="#263238" />
    <rect x="440" y="340" rx="12.5" ry="12.5"
        width="25" height="60" fill="#263238" />
    <rect x="480" y="340" rx="12.5" ry="12.5"
        width="25" height="60" fill="#263238" />
    <rect x="520" y="340" rx="12.5" ry="12.5"
        width="25" height="60" fill="#263238" />

    <!-- bottom pins -->
    <rect x="400" y="140" rx="12.5" ry="12.5"
        width="25" height="60" fill="#263238" />
    <rect x="440" y="140" rx="12.5" ry="12.5"
        width="25" height="60" fill="#263238" />
    <rect x="480" y="140" rx="12.5" ry="12.5"
        width="25" height="60" fill="#263238" />
    <rect x="520" y="140" rx="12.5" ry="12.5"
        width="25" height="60" fill="#263238" />

    <!-- body -->
    <rect x="372.5" y="170" rx="25" ry="25"
        width="200" height="200" fill="black" />

    <!-- symbol -->
    <line x1="392.5" y1="270" x2="427.5" y2="230"
        stroke-linecap="round" style="stroke:white;stroke-width:10" />
    <line x1="392.5" y1="270" x2="427.5" y2="310"
        stroke-linecap="round" style="stroke:white;stroke-width:10" />
    <line x1="552.5" y1="270" x2="517.5" y2="230"
        stroke-linecap="round" style="stroke:white;stroke-width:10" />
    <line x1="552.5" y1="270" x2="517.5" y2="310"
        stroke-linecap="round" style="stroke:white;stroke-width:10" />
    <line x1="472.5" y1="270" x2="497.5" y2="220"
        stroke-linecap="round" style="stroke:white;stroke-width:10" />
    <line x1="472.5" y1="270" x2="447.5" y2="320"
        stroke-linecap="round" style="stroke:white;stroke-width:10" />

    <!-- logo end -->

</svg> 
