<svg version="1.0"
    xmlns="http://www.w3.org/2000/svg"
	viewBox="0 0 1080 675">
	<rect x="0" y="0" width="1080" height="675"
		style="fill:#607d8b" />

    <!-- logo (+330x (+60x), +120y + (67.5y))-->

    <!-- left pins -->
    <rect x="410" y="265" rx="12.5" ry="12.5"
        width="60" height="25" fill="#263238" />
    <rect x="410" y="305" rx="12.5" ry="12.5"
        width="60" height="25" fill="#263238" />
    <rect x="410" y="345" rx="12.5" ry="12.5"
        width="60" height="25" fill="#263238" />
    <rect x="410" y="385" rx="12.5" ry="12.5"
        width="60" height="25" fill="#263238" />

    <!-- right pins -->
    <rect x="610" y="265" rx="12.5" ry="12.5"
        width="60" height="25" fill="#263238" />
    <rect x="610" y="305" rx="12.5" ry="12.5"
        width="60" height="25" fill="#263238" />
    <rect x="610" y="345" rx="12.5" ry="12.5"
        width="60" height="25" fill="#263238" />
    <rect x="610" y="385" rx="12.5" ry="12.5"
        width="60" height="25" fill="#263238" />

    <!-- bottom pins -->
    <rect x="467.5" y="407.5" rx="12.5" ry="12.5"
        width="25" height="60" fill="#263238" />
    <rect x="507.5" y="407.5" rx="12.5" ry="12.5"
        width="25" height="60" fill="#263238" />
    <rect x="547.5" y="407.5" rx="12.5" ry="12.5"
        width="25" height="60" fill="#263238" />
    <rect x="587.5" y="407.5" rx="12.5" ry="12.5"
        width="25" height="60" fill="#263238" />

    <!-- top pins -->
    <rect x="467.5" y="207.5" rx="12.5" ry="12.5"
        width="25" height="60" fill="#263238" />
    <rect x="507.5" y="207.5" rx="12.5" ry="12.5"
        width="25" height="60" fill="#263238" />
    <rect x="547.5" y="207.5" rx="12.5" ry="12.5"
        width="25" height="60" fill="#263238" />
    <rect x="587.5" y="207.5" rx="12.5" ry="12.5"
        width="25" height="60" fill="#263238" />

    <!-- body -->
    <rect x="440" y="237.5" rx="25" ry="25"
        width="200" height="200" fill="black" />

    <!-- symbol -->
    <line x1="460" y1="337.5" x2="495" y2="297.5"
        stroke-linecap="round" style="stroke:white;stroke-width:10" />
    <line x1="460" y1="337.5" x2="495" y2="377.5"
        stroke-linecap="round" style="stroke:white;stroke-width:10" />
    <line x1="620" y1="337.5" x2="585" y2="297.5"
        stroke-linecap="round" style="stroke:white;stroke-width:10" />
    <line x1="620" y1="337.5" x2="585" y2="377.5"
        stroke-linecap="round" style="stroke:white;stroke-width:10" />
    <line x1="540" y1="337.5" x2="565" y2="287.5"
        stroke-linecap="round" style="stroke:white;stroke-width:10" />
    <line x1="540" y1="337.5" x2="515" y2="387.5"
        stroke-linecap="round" style="stroke:white;stroke-width:10" />
</svg> 
