<svg version="1.0"
    xmlns="http://www.w3.org/2000/svg"
	viewBox="0 0 960 540">
	<rect x="0" y="0" width="960" height="540"
		style="fill:#607d8b" />

    <!-- logo (+330x, +120y)-->

    <!-- logo background -->
    <circle cx="480" cy="270" r="180" fill="#b0bec5" />

    <!-- left pins -->
    <rect x="350" y="197.5" rx="12.5" ry="12.5"
        width="60" height="25" fill="#263238" />
    <rect x="350" y="237.5" rx="12.5" ry="12.5"
        width="60" height="25" fill="#263238" />
    <rect x="350" y="277.5" rx="12.5" ry="12.5"
        width="60" height="25" fill="#263238" />
    <rect x="350" y="317.5" rx="12.5" ry="12.5"
        width="60" height="25" fill="#263238" />

    <!-- right pins -->
    <rect x="550" y="197.5" rx="12.5" ry="12.5"
        width="60" height="25" fill="#263238" />
    <rect x="550" y="237.5" rx="12.5" ry="12.5"
        width="60" height="25" fill="#263238" />
    <rect x="550" y="277.5" rx="12.5" ry="12.5"
        width="60" height="25" fill="#263238" />
    <rect x="550" y="317.5" rx="12.5" ry="12.5"
        width="60" height="25" fill="#263238" />

    <!-- bottom pins -->
    <rect x="407.5" y="340" rx="12.5" ry="12.5"
        width="25" height="60" fill="#263238" />
    <rect x="447.5" y="340" rx="12.5" ry="12.5"
        width="25" height="60" fill="#263238" />
    <rect x="487.5" y="340" rx="12.5" ry="12.5"
        width="25" height="60" fill="#263238" />
    <rect x="527.5" y="340" rx="12.5" ry="12.5"
        width="25" height="60" fill="#263238" />

    <!-- top pins -->
    <rect x="407.5" y="140" rx="12.5" ry="12.5"
        width="25" height="60" fill="#263238" />
    <rect x="447.5" y="140" rx="12.5" ry="12.5"
        width="25" height="60" fill="#263238" />
    <rect x="487.5" y="140" rx="12.5" ry="12.5"
        width="25" height="60" fill="#263238" />
    <rect x="527.5" y="140" rx="12.5" ry="12.5"
        width="25" height="60" fill="#263238" />

    <!-- body -->
    <rect x="380" y="170" rx="25" ry="25"
        width="200" height="200" fill="black" />

    <!-- symbol -->
    <line x1="400" y1="270" x2="435" y2="230"
        stroke-linecap="round" style="stroke:white;stroke-width:10" />
    <line x1="400" y1="270" x2="435" y2="310"
        stroke-linecap="round" style="stroke:white;stroke-width:10" />
    <line x1="560" y1="270" x2="525" y2="230"
        stroke-linecap="round" style="stroke:white;stroke-width:10" />
    <line x1="560" y1="270" x2="525" y2="310"
        stroke-linecap="round" style="stroke:white;stroke-width:10" />
    <line x1="480" y1="270" x2="505" y2="220"
        stroke-linecap="round" style="stroke:white;stroke-width:10" />
    <line x1="480" y1="270" x2="455" y2="320"
        stroke-linecap="round" style="stroke:white;stroke-width:10" />
</svg> 
