<svg version="1.0" xmlns="http://www.w3.org/2000/svg"
    viewBox="0 0 400 400">

    <!-- logo (+50x, +50y)-->

    <!-- logo background -->
    <circle cx="200" cy="200" r="200" fill="#607d8b" />

    <!-- left pins -->
    <rect x="70" y="127.5" rx="12.5" ry="12.5"
        width="60" height="25" fill="#263238" />
    <rect x="70" y="167.5" rx="12.5" ry="12.5"
        width="60" height="25" fill="#263238" />
    <rect x="70" y="207.5" rx="12.5" ry="12.5"
        width="60" height="25" fill="#263238" />
    <rect x="70" y="247.5" rx="12.5" ry="12.5"
        width="60" height="25" fill="#263238" />

    <!-- right pins -->
    <rect x="270" y="127.5" rx="12.5" ry="12.5"
        width="60" height="25" fill="#263238" />
    <rect x="270" y="167.5" rx="12.5" ry="12.5"
        width="60" height="25" fill="#263238" />
    <rect x="270" y="207.5" rx="12.5" ry="12.5"
        width="60" height="25" fill="#263238" />
    <rect x="270" y="247.5" rx="12.5" ry="12.5"
        width="60" height="25" fill="#263238" />

    <!-- top pins -->
    <rect x="127.5" y="270" rx="12.5" ry="12.5"
        width="25" height="60" fill="#263238" />
    <rect x="167.5" y="270" rx="12.5" ry="12.5"
        width="25" height="60" fill="#263238" />
    <rect x="207.5" y="270" rx="12.5" ry="12.5"
        width="25" height="60" fill="#263238" />
    <rect x="247.5" y="270" rx="12.5" ry="12.5"
        width="25" height="60" fill="#263238" />

    <!-- bottom pins -->
    <rect x="127.5" y="70" rx="12.5" ry="12.5"
        width="25" height="60" fill="#263238" />
    <rect x="167.5" y="70" rx="12.5" ry="12.5"
        width="25" height="60" fill="#263238" />
    <rect x="207.5" y="70" rx="12.5" ry="12.5"
        width="25" height="60" fill="#263238" />
    <rect x="247.5" y="70" rx="12.5" ry="12.5"
        width="25" height="60" fill="#263238" />

    <!-- body -->
    <rect x="100" y="100" rx="25" ry="25"
        width="200" height="200" fill="black" />

    <!-- symbol -->
    <line x1="120" y1="200" x2="155" y2="160"
        stroke-linecap="round" style="stroke:white;stroke-width:10" />
    <line x1="120" y1="200" x2="155" y2="240"
        stroke-linecap="round" style="stroke:white;stroke-width:10" />
    <line x1="280" y1="200" x2="245" y2="160"
        stroke-linecap="round" style="stroke:white;stroke-width:10" />
    <line x1="280" y1="200" x2="245" y2="240"
        stroke-linecap="round" style="stroke:white;stroke-width:10" />
    <line x1="200" y1="200" x2="225" y2="150"
        stroke-linecap="round" style="stroke:white;stroke-width:10" />
    <line x1="200" y1="200" x2="175" y2="250"
        stroke-linecap="round" style="stroke:white;stroke-width:10" />
</svg> 

