<svg version="1.0" xmlns="http://www.w3.org/2000/svg"
    viewBox="0 0 300 300">

    <defs>
        <clipPath id="left-1"><rect x="15" y="72.5"  width="40" height="35" /></clipPath>
        <clipPath id="left-2"><rect x="15" y="112.5" width="40" height="35" /></clipPath>
        <clipPath id="left-3"><rect x="15" y="152.5" width="40" height="35" /></clipPath>
        <clipPath id="left-4"><rect x="15" y="192.5" width="40" height="35" /></clipPath>
        <clipPath id="right-1"><rect x="250" y="72.5"  width="40" height="35" /></clipPath>
        <clipPath id="right-2"><rect x="250" y="112.5" width="40" height="35" /></clipPath>
        <clipPath id="right-3"><rect x="250" y="152.5" width="40" height="35" /></clipPath>
        <clipPath id="right-4"><rect x="250" y="192.5" width="40" height="35" /></clipPath>
        <clipPath id="bottom-1"><rect x="72.5"  y="250" width="35" height="40" /></clipPath>
        <clipPath id="bottom-2"><rect x="112.5" y="250" width="35" height="40" /></clipPath>
        <clipPath id="bottom-3"><rect x="152.5" y="250" width="35" height="40" /></clipPath>
        <clipPath id="bottom-4"><rect x="192.5" y="250" width="35" height="40" /></clipPath>
        <clipPath id="top-1"><rect x="72.5"  y="15" width="35" height="40" /></clipPath>
        <clipPath id="top-2"><rect x="112.5" y="15" width="35" height="40" /></clipPath>
        <clipPath id="top-3"><rect x="152.5" y="15" width="35" height="40" /></clipPath>
        <clipPath id="top-4"><rect x="192.5" y="15" width="35" height="40" /></clipPath>
    </defs>

    <!-- left pins -->
    <rect x="20" y="77.5" rx="12.5" ry="12.5"
        width="60" height="25" clip-path="url(#left-1)"
        style="stroke:white;stroke-width:10;fill:none" />
    <rect x="20" y="117.5" rx="12.5" ry="12.5"
        width="60" height="25" clip-path="url(#left-2)"
        style="stroke:white;stroke-width:10;fill:none" />
    <rect x="20" y="157.5" rx="12.5" ry="12.5"
        width="60" height="25" clip-path="url(#left-3)"
        style="stroke:white;stroke-width:10;fill:none" />
    <rect x="20" y="197.5" rx="12.5" ry="12.5"
        width="60" height="25" clip-path="url(#left-4)"
        style="stroke:white;stroke-width:10;fill:none" />

    <!-- right pins -->
    <rect x="220" y="77.5" rx="12.5" ry="12.5"
        width="60" height="25" clip-path="url(#right-1)"
        style="stroke:white;stroke-width:10;fill:none" />
    <rect x="220" y="117.5" rx="12.5" ry="12.5"
        width="60" height="25" clip-path="url(#right-2)"
        style="stroke:white;stroke-width:10;fill:none" />
    <rect x="220" y="157.5" rx="12.5" ry="12.5"
        width="60" height="25" clip-path="url(#right-3)"
        style="stroke:white;stroke-width:10;fill:none" />
    <rect x="220" y="197.5" rx="12.5" ry="12.5"
        width="60" height="25" clip-path="url(#right-4)"
        style="stroke:white;stroke-width:10;fill:none" />

    <!-- bottom pins -->
    <rect x="77.5" y="220" rx="12.5" ry="12.5"
        width="25" height="60" clip-path="url(#bottom-1)"
        style="stroke:white;stroke-width:10;fill:none" />
    <rect x="117.5" y="220" rx="12.5" ry="12.5"
        width="25" height="60" clip-path="url(#bottom-2)"
        style="stroke:white;stroke-width:10;fill:none" />
    <rect x="157.5" y="220" rx="12.5" ry="12.5"
        width="25" height="60" clip-path="url(#bottom-3)"
        style="stroke:white;stroke-width:10;fill:none" />
    <rect x="197.5" y="220" rx="12.5" ry="12.5"
        width="25" height="60" clip-path="url(#bottom-4)"
        style="stroke:white;stroke-width:10;fill:none" />

    <!-- top pins -->
    <rect x="77.5" y="20" rx="12.5" ry="12.5"
        width="25" height="60" clip-path="url(#top-1)"
        style="stroke:white;stroke-width:10;fill:none" />
    <rect x="117.5" y="20" rx="12.5" ry="12.5"
        width="25" height="60" clip-path="url(#top-2)"
        style="stroke:white;stroke-width:10;fill:none" />
    <rect x="157.5" y="20" rx="12.5" ry="12.5"
        width="25" height="60" clip-path="url(#top-3)"
        style="stroke:white;stroke-width:10;fill:none" />
    <rect x="197.5" y="20" rx="12.5" ry="12.5"
        width="25" height="60" clip-path="url(#top-4)"
        style="stroke:white;stroke-width:10;fill:none" />

    <!-- body -->
    <rect x="50" y="50" rx="25" ry="25"
        width="200" height="200"
        style="stroke:white;stroke-width:10;fill:none" />

    <!-- symbol -->
    <line x1="70" y1="150" x2="105" y2="110"
        stroke-linecap="round" style="stroke:white;stroke-width:10" />
    <line x1="70" y1="150" x2="105" y2="190"
        stroke-linecap="round" style="stroke:white;stroke-width:10" />
    <line x1="230" y1="150" x2="195" y2="110"
        stroke-linecap="round" style="stroke:white;stroke-width:10" />
    <line x1="230" y1="150" x2="195" y2="190"
        stroke-linecap="round" style="stroke:white;stroke-width:10" />
    <line x1="150" y1="150" x2="175" y2="100"
        stroke-linecap="round" style="stroke:white;stroke-width:10" />
    <line x1="150" y1="150" x2="125" y2="200"
        stroke-linecap="round" style="stroke:white;stroke-width:10" />
</svg> 
