<svg version="1.0" xmlns="http://www.w3.org/2000/svg"
    viewBox="0 0 300 300">

    <!-- left pins -->
    <rect x="10" y="72.5"  rx="10" ry="10"
     width="60" height="35" stroke-width="7.5"
     fill="#ffde03" stroke="#01579b" stroke-opacity="0.75" />
    <rect x="10" y="112.5" rx="10" ry="10"
     width="60" height="35" stroke-width="7.5"
     fill="#ffde03" stroke="#01579b" stroke-opacity="0.75" />
    <rect x="10" y="152.5" rx="10" ry="10"
     width="60" height="35" stroke-width="7.5"
     fill="#ffde03" stroke="#01579b" stroke-opacity="0.75" />
    <rect x="10" y="192.5" rx="10" ry="10"
     width="60" height="35" stroke-width="7.5"
     fill="#ffde03" stroke="#01579b" stroke-opacity="0.75" />

    <!-- right pins -->
    <rect x="230" y="72.5"  rx="10" ry="10"
     width="60" height="35" stroke-width="7.5"
     fill="#ffde03" stroke="#01579b" stroke-opacity="0.75" />
    <rect x="230" y="112.5" rx="10" ry="10"
     width="60" height="35" stroke-width="7.5"
     fill="#ffde03" stroke="#01579b" stroke-opacity="0.75" />
    <rect x="230" y="152.5" rx="10" ry="10"
     width="60" height="35" stroke-width="7.5"
     fill="#ffde03" stroke="#01579b" stroke-opacity="0.75" />
    <rect x="230" y="192.5" rx="10" ry="10"
     width="60" height="35" stroke-width="7.5"
     fill="#ffde03" stroke="#01579b" stroke-opacity="0.75" />

    <!-- top pins -->
    <rect x="72.5" y="230"  rx="10" ry="10"
     width="35" height="60" stroke-width="7.5"
     fill="#ffde03" stroke="#01579b" stroke-opacity="0.75" />
    <rect x="112.5" y="230" rx="10" ry="10"
     width="35" height="60" stroke-width="7.5"
     fill="#ffde03" stroke="#01579b" stroke-opacity="0.75" />
    <rect x="152.5" y="230" rx="10" ry="10"
     width="35" height="60" stroke-width="7.5"
     fill="#ffde03" stroke="#01579b" stroke-opacity="0.75" />
    <rect x="192.5" y="230" rx="10" ry="10"
     width="35" height="60" stroke-width="7.5"
     fill="#ffde03" stroke="#01579b" stroke-opacity="0.75" />

    <!-- bottom pins -->
    <rect x="72.5" y="10"  rx="10" ry="10"
     width="35" height="60" stroke-width="7.5"
     fill="#ffde03" stroke="#01579b" stroke-opacity="0.75" />
    <rect x="112.5" y="10" rx="10" ry="10"
     width="35" height="60" stroke-width="7.5"
     fill="#ffde03" stroke="#01579b" stroke-opacity="0.75" />
    <rect x="152.5" y="10" rx="10" ry="10"
     width="35" height="60" stroke-width="7.5"
     fill="#ffde03" stroke="#01579b" stroke-opacity="0.75" />
    <rect x="192.5" y="10" rx="10" ry="10"
     width="35" height="60" stroke-width="7.5"
     fill="#ffde03" stroke="#01579b" stroke-opacity="0.75" />
</svg> 
