<svg version="1.0" xmlns="http://www.w3.org/2000/svg"
	viewBox="0 0 300 300">

	<!-- left pins -->
	<rect x="20" y="77.5" rx="12.5" ry="12.5"
		width="60" height="25" fill="#263238" />
	<rect x="20" y="117.5" rx="12.5" ry="12.5"
		width="60" height="25" fill="#263238" />
	<rect x="20" y="157.5" rx="12.5" ry="12.5"
		width="60" height="25" fill="#263238" />
	<rect x="20" y="197.5" rx="12.5" ry="12.5"
		width="60" height="25" fill="#263238" />

	<!-- right pins -->
	<rect x="220" y="77.5" rx="12.5" ry="12.5"
		width="60" height="25" fill="#263238" />
	<rect x="220" y="117.5" rx="12.5" ry="12.5"
		width="60" height="25" fill="#263238" />
	<rect x="220" y="157.5" rx="12.5" ry="12.5"
		width="60" height="25" fill="#263238" />
	<rect x="220" y="197.5" rx="12.5" ry="12.5"
		width="60" height="25" fill="#263238" />

	<!-- top pins -->
	<rect x="77.5" y="220" rx="12.5" ry="12.5"
		width="25" height="60" fill="#263238" />
	<rect x="117.5" y="220" rx="12.5" ry="12.5"
		width="25" height="60" fill="#263238" />
	<rect x="157.5" y="220" rx="12.5" ry="12.5"
		width="25" height="60" fill="#263238" />
	<rect x="197.5" y="220" rx="12.5" ry="12.5"
		width="25" height="60" fill="#263238" />

	<!-- bottom pins -->
	<rect x="77.5" y="20" rx="12.5" ry="12.5"
		width="25" height="60" fill="#263238" />
	<rect x="117.5" y="20" rx="12.5" ry="12.5"
		width="25" height="60" fill="#263238" />
	<rect x="157.5" y="20" rx="12.5" ry="12.5"
		width="25" height="60" fill="#263238" />
	<rect x="197.5" y="20" rx="12.5" ry="12.5"
		width="25" height="60" fill="#263238" />

	<!-- body -->
	<rect x="50" y="50" rx="25" ry="25"
		width="200" height="200" fill="black" />

	<!-- symbol -->
	<line x1="70" y1="150" x2="105" y2="110"
		stroke-linecap="round" style="stroke:white;stroke-width:10" />
	<line x1="70" y1="150" x2="105" y2="190"
		stroke-linecap="round" style="stroke:white;stroke-width:10" />
	<line x1="230" y1="150" x2="195" y2="110"
		stroke-linecap="round" style="stroke:white;stroke-width:10" />
	<line x1="230" y1="150" x2="195" y2="190"
		stroke-linecap="round" style="stroke:white;stroke-width:10" />
	<line x1="150" y1="150" x2="175" y2="100"
		stroke-linecap="round" style="stroke:white;stroke-width:10" />
	<line x1="150" y1="150" x2="125" y2="200"
		stroke-linecap="round" style="stroke:white;stroke-width:10" />
</svg> 
