<svg version="1.0" xmlns="http://www.w3.org/2000/svg"
    viewBox="0 0 100 100">

	<!-- pins -->
	<rect x="60" y="65" width="4" height="15" rx="1" ry="1"
	 fill="#bdbdbd" />
	<rect x="54" y="65" width="4" height="15" rx="1" ry="1"
	 fill="#bdbdbd" />
	<rect x="48" y="65" width="4" height="15" rx="1" ry="1"
	 fill="#bdbdbd" />
	<rect x="42" y="65" width="4" height="15" rx="1" ry="1"
	 fill="#bdbdbd" />
	<rect x="36" y="65" width="4" height="15" rx="1" ry="1"
	 fill="#bdbdbd" />

	<rect x="27.5" y="27" width="45" height="6" rx="1" ry="1"
	 fill="#eeeeee" />
	<g transform="rotate(-30 24 31)">
		<rect x="22" y="27" width="4" height="8" rx="1" ry="1"
		 fill="#e0e0e0" />
	</g>
	<g transform="rotate(30 76 31)">
		<rect x="74" y="27" width="4" height="8" rx="1" ry="1"
		 fill="#e0e0e0" />
	</g>

	<!-- body -->
	<rect x="20" y="30" width="60" height="40" rx="4" ry="4"
	 fill="#e0e0e0" />
	<rect x="30" y="60" width="40" height="5" rx="1" ry="1"
	 fill="#000000" />
	<rect x="32.5" y="65" width="2.5" height="5" fill="#000000" />
	<rect x="65" y="65" width="2.5" height="5" fill="#000000" />
	<rect x="40" y="58" width="20" height="4" fill="#e0e0e0" />
	<rect x="37.5" y="58" width="5" height="9" fill="#e0e0e0" />
	<rect x="57.5" y="58" width="5" height="9" fill="#e0e0e0" />

	<!-- body features -->
	<rect x="17.5" y="57.5" width="5" height="7.5" rx="1" ry="1" fill="#e0e0e0" />
	<rect x="77.5" y="57.5" width="5" height="7.5" rx="1" ry="1" fill="#e0e0e0" />
	<rect x="25" y="40" width="7.5" height="15" rx="2" ry="2" fill="#bdbdbd" />
	<rect x="67.5" y="40" width="7.5" height="15" rx="2" ry="2" fill="#bdbdbd" />
</svg> 
