<svg version="1.0" xmlns="http://www.w3.org/2000/svg"
    viewBox="0 0 300 300">

    <!-- left pins -->
    <rect x="20.0" y="77.5"
          rx="12.5" ry="12.5"
          width="60.0" height="25.0"
          fill="#263238" />
    <rect x="20.0" y="117.5"
          rx="12.5" ry="12.5"
          width="60.0" height="25.0"
          fill="#263238" />
    <rect x="20.0" y="157.5"
          rx="12.5" ry="12.5"
          width="60.0" height="25.0"
          fill="#263238" />
    <rect x="20.0" y="197.5"
          rx="12.5" ry="12.5"
          width="60.0" height="25.0"
          fill="#263238" />

    <!-- right pins -->
    <rect x="220.0" y="77.5"
          rx="12.5" ry="12.5"
          width="60.0" height="25.0"
          fill="#263238" />
    <rect x="220.0" y="117.5"
          rx="12.5" ry="12.5"
          width="60.0" height="25.0"
          fill="#263238" />
    <rect x="220.0" y="157.5"
          rx="12.5" ry="12.5"
          width="60.0" height="25.0"
          fill="#263238" />
    <rect x="220.0" y="197.5"
          rx="12.5" ry="12.5"
          width="60.0" height="25.0"
          fill="#263238" />

    <!-- top pins -->
    <rect x="77.5" y="220.0"
          rx="12.5" ry="12.5"
          width="25.0" height="60.0"
          fill="#263238" />
    <rect x="117.5" y="220.0"
          rx="12.5" ry="12.5"
          width="25.0" height="60.0"
          fill="#263238" />
    <rect x="157.5" y="220.0"
          rx="12.5" ry="12.5"
          width="25.0" height="60.0"
          fill="#263238" />
    <rect x="197.5" y="220.0"
          rx="12.5" ry="12.5"
          width="25.0" height="60.0"
          fill="#263238" />

    <!-- bottom pins -->
    <rect x="77.5" y="20.0"
          rx="12.5" ry="12.5"
          width="25.0" height="60.0"
          fill="#263238" />
    <rect x="117.5" y="20.0"
          rx="12.5" ry="12.5"
          width="25.0" height="60.0"
          fill="#263238" />
    <rect x="157.5" y="20.0"
          rx="12.5" ry="12.5"
          width="25.0" height="60.0"
          fill="#263238" />
    <rect x="197.5" y="20.0"
          rx="12.5" ry="12.5"
          width="25.0" height="60.0"
          fill="#263238" />

    <!-- body -->
    <rect x="50.0" y="50.0"
          rx="25.0" ry="25.0"
          width="200.0" height="200.0"
          fill="black" />

    <!-- symbol -->
    <line x1="70" y1="150.0"
          x2="105" y2="110"
          stroke-linecap="round"
          style="stroke:white;stroke-width:10.0" />

    <line x1="70" y1="150.0"
          x2="105" y2="190"
          stroke-linecap="round"
          style="stroke:white;stroke-width:10.0" />

    <line x1="230" y1="150.0"
          x2="195" y2="110"
          stroke-linecap="round"
          style="stroke:white;stroke-width:10.0" />

    <line x1="230" y1="150.0"
          x2="195" y2="190"
          stroke-linecap="round"
          style="stroke:white;stroke-width:10.0" />

    <line x1="150.0" y1="150.0"
          x2="175" y2="100"
          stroke-linecap="round"
          style="stroke:white;stroke-width:10.0" />

    <line x1="150.0" y1="150.0"
          x2="125" y2="200"
          stroke-linecap="round"
          style="stroke:white;stroke-width:10.0" />

    <!-- grid -->
    <line x1="150.0" y1="0"
          x2="150.0" y2="300"
          style="stroke:red;stroke-width:2" />
    <line x1="0" y1="150.0"
          x2="300" y2="150.0"
          style="stroke:red;stroke-width:2" />

    <!-- border -->
    <line x1="0" y1="0"
          x2="0" y2="300"
          style="stroke:blue;stroke-width:2" />
    <line x1="0" y1="0"
          x2="300" y2="0"
          style="stroke:blue;stroke-width:2" />
    <line x1="0" y1="300"
          x2="300" y2="300"
          style="stroke:blue;stroke-width:2" />
    <line x1="300" y1="0"
          x2="300" y2="300"
          style="stroke:blue;stroke-width:2" />
</svg>
